<svg id="logo" xmlns="http://www.w3.org/2000/svg" xmlns:xlink="http://www.w3.org/1999/xlink" width="367.967" height="121.635" viewBox="0 0 367.967 121.635">
  <defs>
    <clipPath id="clip-path">
      <rect id="Rectangle_5085" data-name="Rectangle 5085" width="367.967" height="121.635" fill="none"/>
    </clipPath>
  </defs>
  <path id="Path_7749" data-name="Path 7749" d="M24.33,120.589l9.6,21.608H14.721Zm-3.965-7.653L0,158.353H7.717L12,148.808H36.584l4.347,9.544h7.727L28.283,112.936Z" transform="translate(0 -55.786)" fill="#5897b4"/>
  <g id="Group_7857" data-name="Group 7857">
    <g id="Group_7856" data-name="Group 7856" clip-path="url(#clip-path)">
      <path id="Path_7750" data-name="Path 7750" d="M127.694,113.062v18.366c-2.083-3.762-7.334-5.718-11.224-5.718-9.279,0-16.22,5.782-16.22,16.676,0,10.576,7.068,16.677,16.347,16.677,4.283,0,8.567-1.626,11.1-5.708l.383,5.059h6.292V113.062Zm-10.64,39.773c-5.644,0-10.118-4.028-10.118-10.448,0-6.547,4.474-10.384,10.118-10.384a10.419,10.419,0,0,1,0,20.832" transform="translate(-49.519 -55.848)" fill="#5897b4"/>
      <path id="Path_7751" data-name="Path 7751" d="M206.15,139.337l-4.8,11.617-5.059,13.562-5.644-14.858-4.284-10.321h-7.387l13.615,32.184h7.334l13.562-32.184Z" transform="translate(-88.405 -68.827)" fill="#5897b4"/>
      <path id="Path_7752" data-name="Path 7752" d="M268.392,138.183c-9.927,0-16.475,7.27-16.475,16.676,0,9.47,6.484,16.613,16.475,16.613,10.055,0,16.6-7.143,16.6-16.613,0-9.406-6.739-16.676-16.6-16.676m0,27.061c-6.1,0-9.8-4.677-9.8-10.385,0-5.644,3.7-10.512,9.8-10.512,5.835,0,9.863,4.868,9.863,10.512,0,5.708-3.7,10.385-9.863,10.385" transform="translate(-124.436 -68.256)" fill="#5897b4"/>
      <path id="Path_7753" data-name="Path 7753" d="M353.306,164.078a12.646,12.646,0,0,0,8.5-12.457,14.1,14.1,0,0,0-3.9-9.928l3.837-4.474-4.868-3.762-3.507,4.283c-2.264-1.563-5.963-2.21-8.631-2.21-8.684,0-17.314,5.388-17.314,16.092,0,9.991,6.94,15.954,17.314,15.954,5.973,0,10.055,2.466,10.055,6.941,0,4.549-5.25,6.558-10.182,6.558-5.314-.064-10.374-2.732-10.182-7.727h-6.686c-.255,8.9,6.43,14.211,16.868,14.211,8.567,0,17.134-4.347,17.134-13.041,0-3.827-1.881-8.237-8.439-10.438m-8.567-2.668c-5.771,0-10.565-3.433-10.565-9.789,0-6.686,5.123-9.864,10.565-9.864,5.516,0,10.385,3.572,10.385,9.864,0,5.771-4.475,9.789-10.385,9.789" transform="translate(-161.734 -65.922)" fill="#5897b4"/>
      <path id="Path_7754" data-name="Path 7754" d="M433.772,138.78l-.2,5.059c-2.009-3.635-6.356-5.782-10.895-5.782-9.215,0-16.549,5.973-16.549,16.676,0,10.9,7.079,16.932,16.422,16.868,3.954,0,8.886-1.945,11.022-6.037l.329,5.2h6.356V138.78ZM423.2,165.373c-5.708,0-10.384-4.017-10.384-10.64,0-6.547,4.676-10.575,10.384-10.575,13.817,0,13.817,21.215,0,21.215" transform="translate(-200.609 -68.194)" fill="#5897b4"/>
      <path id="Path_7755" data-name="Path 7755" d="M515.1,113.062v18.366c-2.073-3.762-7.334-5.718-11.224-5.718-9.279,0-16.22,5.782-16.22,16.676,0,10.576,7.079,16.677,16.347,16.677,4.283,0,8.566-1.626,11.1-5.708l.393,5.059h6.292V113.062Zm-10.639,39.773c-5.644,0-10.118-4.028-10.118-10.448,0-6.547,4.474-10.384,10.118-10.384a10.419,10.419,0,0,1,0,20.832" transform="translate(-240.884 -55.848)" fill="#5897b4"/>
      <path id="Path_7756" data-name="Path 7756" d="M585.546,138.183c-9.916,0-16.475,7.27-16.475,16.676,0,9.47,6.495,16.613,16.475,16.613,10.065,0,16.613-7.143,16.613-16.613,0-9.406-6.75-16.676-16.613-16.676m0,27.061c-6.09,0-9.789-4.677-9.789-10.385,0-5.644,3.7-10.512,9.789-10.512,5.846,0,9.863,4.868,9.863,10.512,0,5.708-3.7,10.385-9.863,10.385" transform="translate(-281.097 -68.256)" fill="#5897b4"/>
      <path id="Path_7757" data-name="Path 7757" d="M658.093,151.43c-4.092-.393-6.877-1.424-6.94-4.092,0-2.529,2.721-3.89,6.8-3.826a11.472,11.472,0,0,1,8.439,2.987l3.762-4.411c-3.571-3.178-7.4-4.284-12.329-4.284-5.963,0-13.3,2.668-13.3,9.736.064,7.068,7,9.013,13.042,9.6,4.73.457,7.461,1.563,7.4,4.411-.064,2.987-3.635,4.156-6.813,4.156a15.652,15.652,0,0,1-11.226-4.743l-3.505,4.743c4.219,4.73,9.406,5.9,14.6,5.9,8.3,0,13.552-4.146,13.616-10.119.064-8.237-7.653-9.534-13.552-10.055" transform="translate(-317.824 -68.069)" fill="#5897b4"/>
      <path id="Path_7758" data-name="Path 7758" d="M710.867,191.635c0,5.516,8.237,5.516,8.237,0,0-5.453-8.237-5.453-8.237,0" transform="translate(-351.138 -92.64)" fill="#fff"/>
      <path id="Path_7759" data-name="Path 7759" d="M35.564,31.62c0,5.708-6.037,7.525-11.479,7.525-5.261,0-10.9-1.945-14.147-7.461L4.485,35.318a18.222,18.222,0,0,0,8.96,8.439H0V0H13.679C9.449,1.988,6.335,5.5,6.367,10.926c0,9.736,8.567,12,17.591,13.233,6.356.84,11.607,2.529,11.607,7.461" fill="#fff"/>
      <path id="Path_7760" data-name="Path 7760" d="M75.278,43.759H47.654c4.889-2.041,8.386-5.9,8.429-12.138,0-10.183-8.9-12.776-18.229-14.073-5.973-.85-11.032-2.083-11.032-6.494,0-4.347,4.411-6.877,10.512-6.877,4.73.064,9.077,1.945,11.224,5.059l5.506-3.7A14.878,14.878,0,0,0,47.92,0H75.948c-9.8,3.614-14.541,12.892-14.488,22.214.053,9.13,4.39,17.92,13.817,21.544" transform="translate(-13.249)" fill="#fff"/>
      <path id="Path_7761" data-name="Path 7761" d="M149.04,0V43.759H135.648a22.811,22.811,0,0,0,7.664-5.006l-5-5a17.612,17.612,0,0,1-12.064,4.932c-11.745,0-16.676-8.237-16.74-16.538-.063-8.375,5.187-16.867,16.74-16.867a16.672,16.672,0,0,1,11.734,4.666L142.85,5.28A23.337,23.337,0,0,0,134.808,0Z" transform="translate(-54.094)" fill="#fff"/>
    </g>
  </g>
</svg>
